<!--?xml version="1.0" encoding="utf-8"?-->
<!-- Generator: Adobe Illustrator 18.1.1, SVG Export Plug-In . SVG Version: 6.00 Build 0)  -->

<svg version="1.1" id="_x32_" xmlns="http://www.w3.org/2000/svg" xmlns:xlink="http://www.w3.org/1999/xlink" x="0px" y="0px" viewBox="0 0 512 512" style="width: 128px; height: 128px; opacity: 1;" xml:space="preserve">
<style type="text/css">
	.st0{fill:#4B4B4B;}
</style>
<g>
	<rect x="183.539" y="398.668" class="st0" width="17.946" height="113.332" style="fill: #C8E1F6;"></rect>
	<path class="st0" d="M343.624,169.118C347.319,65.824,279.66,0,193.881,0C108.088,0,40.443,65.824,44.124,169.118
		c3.843,107.514,80.022,174.195,130.395,188.945l-14.211,26.225h67.132l-14.212-26.225
		C263.602,343.32,339.781,276.639,343.624,169.118z M159.149,84.154c-6.122,3.573-11.69,7.928-16.598,13.018
		c-10.813,11.218-18.445,25.49-22.598,42.856c-1.766,7.416-9.209,11.994-16.625,10.227c-7.416-1.766-12-9.216-10.234-16.631
		c5.11-21.526,15.048-40.577,29.582-55.632c6.687-6.93,14.292-12.863,22.557-17.69c6.593-3.842,15.047-1.618,18.89,4.968
		C167.966,71.858,165.741,80.312,159.149,84.154z" style="fill: #C8E1F6;"></path>
	<rect x="347.669" y="412.697" class="st0" width="13.55" height="85.496" style="fill: #C8E1F6;"></rect>
	<path class="st0" d="M467.911,239.534c2.723-76.281-46.166-125.346-108.943-127.381c4.22,18.195,6.068,37.557,5.353,57.707
		c-2.846,79.611-40.976,137.238-82.099,172.051c18.647,21.249,40.462,34.988,58.125,40.159l-10.719,19.78h50.629l-10.706-19.78
		C407.547,370.946,465.012,320.648,467.911,239.534z" style="fill: #C8E1F6;"></path>
</g>
</svg>
