<!--?xml version="1.0" encoding="utf-8"?-->
<!-- Generator: Adobe Illustrator 18.1.1, SVG Export Plug-In . SVG Version: 6.00 Build 0)  -->

<svg version="1.1" id="_x32_" xmlns="http://www.w3.org/2000/svg" xmlns:xlink="http://www.w3.org/1999/xlink" x="0px" y="0px" viewBox="0 0 512 512" style="width: 128px; height: 128px; opacity: 1;" xml:space="preserve">
<style type="text/css">
	.st0{fill:#4B4B4B;}
</style>
<g>
	<rect x="189.214" y="242.65" class="st0" width="41.742" height="41.745" style="fill: rgb(75, 75, 75);"></rect>
	<rect x="281.044" y="242.65" class="st0" width="41.741" height="41.745" style="fill: rgb(75, 75, 75);"></rect>
	<path class="st0" d="M408.476,257.142v-137.74H261.445v-32.58L375.98,47.717L245.542,0v119.402H103.527v137.74H57.613V512h396.775
		V257.142H408.476z M427.142,484.754h-128.56v-70.122c0-23.513-19.063-42.58-42.583-42.58c-23.518,0-42.58,19.067-42.58,42.58
		v70.122H84.862V284.396h45.915V146.648h50.087v44.523h50.092v-44.523h50.088v44.523h50.091v-44.523h50.096v137.748h45.911V484.754z
		" style="fill: rgb(75, 75, 75);"></path>
</g>
</svg>
